<svg xmlns="http://www.w3.org/2000/svg" version="1.1" xmlns:xlink="http://www.w3.org/1999/xlink" xmlns:svgjs="http://svgjs.dev/svgjs" width="1000" height="214" viewBox="0 0 1000 214"><g transform="matrix(1,0,0,1,-0.6060606060606233,0.4173862739008172)"><svg viewBox="0 0 396 85" data-background-color="#ffffff" preserveAspectRatio="xMidYMid meet" height="214" width="1000" xmlns="http://www.w3.org/2000/svg" xmlns:xlink="http://www.w3.org/1999/xlink"><g id="tight-bounds" transform="matrix(1,0,0,1,0.2400000000000091,-0.16578426767088672)"><svg viewBox="0 0 395.52 85.33156853534179" height="85.33156853534179" width="395.52"><g><svg viewBox="0 0 520.3377344097387 112.26040413963666" height="85.33156853534179" width="395.52"><g transform="matrix(1,0,0,1,124.8177344097387,32.376950793518645)"><svg viewBox="0 0 395.52 47.50650255259937" height="47.50650255259937" width="395.52"><g id="textblocktransform"><svg viewBox="0 0 395.52 47.50650255259937" height="47.50650255259937" width="395.52" id="textblock"><g><svg viewBox="0 0 395.52 26.595948487144067" height="26.595948487144067" width="395.52"><g transform="matrix(1,0,0,1,0,0)"><svg width="395.52" viewBox="3.17 -35.06 546.26 36.84" height="26.595948487144067" data-palette-color="#1ebbd7"><g class="wordmark-text-0" data-fill-palette-color="primary" id="text-0"><path d="M3.17 0L16.92-34.69 23.66-34.69 37.38 0 31.05 0 27.17-9.08 13.01-9.08 9.13 0 3.17 0ZM15.14-14.72L25.02-14.72 20.09-27.59 15.14-14.72ZM45.58 0L45.58-34.69 51.73-34.69 51.73 0 45.58 0ZM91.55-24.76L91.55-24.76Q91.55-23.1 91.14-21.59 90.74-20.09 89.88-18.7 89.01-17.31 87.51-16.21 86.01-15.11 83.95-14.5L83.95-14.5 94.43 0 86.42 0 76.7-13.45 70.82-13.45 70.82 0 64.67 0 64.67-34.69 79.44-34.69Q80.54-34.69 81.45-34.63 82.37-34.57 83.67-34.34 84.98-34.11 85.99-33.72 87.01-33.33 88.09-32.57 89.18-31.81 89.9-30.8 90.62-29.79 91.08-28.23 91.55-26.68 91.55-24.76ZM77.63-29.05L70.82-29.05 70.82-19.12 76.48-19.12Q77.95-19.12 79.07-19.21 80.2-19.31 81.39-19.62 82.59-19.92 83.36-20.46 84.13-21 84.63-21.95 85.13-22.9 85.13-24.19L85.13-24.19Q85.13-29.05 77.63-29.05L77.63-29.05Z" fill="#1ebbd7" data-fill-palette-color="primary"></path><path d="M131.68-35.06L131.68-35.06Q140.01-35.06 144.99-30.22 149.97-25.39 149.97-17.31L149.97-17.31Q149.97-10.64 146.62-6.05L146.62-6.05 151.12-1.83 147.53 1.78 142.65-2.66Q137.98 0.37 131.73 0.37L131.73 0.37Q127.83 0.37 124.47-0.83 121.11-2.03 118.63-4.22 116.16-6.42 114.75-9.77 113.35-13.11 113.35-17.21L113.35-17.21Q113.35-22.61 115.68-26.67 118.01-30.74 122.16-32.9 126.31-35.06 131.68-35.06ZM131.32-29.42L131.32-29.42Q129.63-29.42 128.01-29 126.39-28.59 124.86-27.67 123.33-26.76 122.19-25.43 121.04-24.1 120.34-22.08 119.65-20.07 119.65-17.65L119.65-17.65Q119.65-14.67 120.67-12.29 121.7-9.91 123.44-8.4 125.19-6.88 127.46-6.08 129.73-5.27 132.27-5.27L132.27-5.27Q135.44-5.27 138.03-6.57L138.03-6.57 129.88-13.13 134.2-16.92 142.06-10.3Q143.57-12.89 143.57-16.77L143.57-16.77Q143.57-19.68 142.76-21.95 141.94-24.22 140.68-25.59 139.42-26.95 137.74-27.86 136.05-28.76 134.49-29.09 132.93-29.42 131.32-29.42ZM175.94 0.49L175.94 0.49Q162.13 0.49 160.95-9.18L160.95-9.18Q160.83-10.23 160.83-11.84L160.83-11.84 160.83-12.16 160.83-34.69 166.98-34.69 166.98-12.7Q166.98-10.86 167.34-9.63 167.69-8.4 168.77-7.37L168.77-7.37Q171.13-5.1 175.94-5.1L175.94-5.1Q179.39-5.1 181.66-6.32 183.93-7.54 184.56-9.77L184.56-9.77Q184.88-10.84 184.88-12.7L184.88-12.7 184.88-34.69 190.98-34.69Q190.98-27.08 190.99-22.23 191.01-17.38 191.01-16.03 191.01-14.67 191.02-13.84 191.03-13.01 191.03-12.48L191.03-12.48Q191.03-11.33 190.97-10.41 190.91-9.5 190.58-8.08 190.25-6.67 189.68-5.58 189.1-4.49 187.97-3.3 186.83-2.1 185.28-1.32 183.73-0.54 181.34-0.02 178.95 0.49 175.94 0.49ZM199.33 0L213.07-34.69 219.81-34.69 233.53 0 227.21 0 223.33-9.08 209.17-9.08 205.29 0 199.33 0ZM211.29-14.72L221.18-14.72 216.25-27.59 211.29-14.72ZM241 0L241-34.69 247.15-34.69 247.15-5.64 264.73-5.64 264.73 0 241 0ZM273.4 0L273.4-34.69 279.55-34.69 279.55 0 273.4 0ZM287.48-29.03L287.48-34.69 318.83-34.69 318.83-29.03 306.23-29.03 306.23 0 300.08 0 300.08-29.03 287.48-29.03ZM334.23-16.21L321.39-34.69 328.67-34.69 337.94-21.24 347.42-34.69 354.45-34.69 341.14-16.21 341.14 0 334.23 0 334.23-16.21Z" fill="#4b91f1" data-fill-palette-color="secondary"></path><path d="M375.93 0L375.93-34.69 382.08-34.69 382.08 0 375.93 0ZM395.02 0L395.02-34.69 401.81-34.69 421.17-8.03 421.17-34.69 427.32-34.69 427.32 0 420.46 0 401.17-26.71 401.17 0 395.02 0ZM452.2-29.03L452.2-29.03 445.87-29.03 445.87-5.66 450.34-5.66Q452.03-5.66 453.12-5.71 454.22-5.76 456.01-6.05 457.79-6.35 459.04-6.87 460.3-7.4 461.66-8.46 463.01-9.52 463.92-11.04L463.92-11.04Q465.58-13.82 465.58-17.55L465.58-17.55Q465.58-19.7 464.98-21.51 464.38-23.32 463.39-24.55 462.4-25.78 461.07-26.71 459.74-27.64 458.37-28.15 457.01-28.66 455.57-28.86L455.57-28.86Q454.34-29.03 452.2-29.03ZM439.72-34.69L452.03-34.69Q455.3-34.69 458.06-34.18 460.81-33.67 462.82-32.79 464.82-31.91 466.38-30.66 467.94-29.42 468.94-28 469.95-26.59 470.59-24.93 471.24-23.27 471.5-21.67 471.75-20.07 471.75-18.36L471.75-18.36Q471.75-16.11 471.39-14.03 471.02-11.94 470.09-9.78 469.16-7.62 467.71-5.9 466.26-4.17 463.93-2.8 461.6-1.42 458.59-0.76L458.59-0.76Q457.05-0.42 455.17-0.23 453.3-0.05 452.09-0.02 450.88 0 448.71 0L448.71 0 439.72 0 439.72-34.69ZM507.08 0L482.74 0 482.74-34.69 507.08-34.69 507.08-29.03 488.91-29.03 488.91-20.7 505.73-20.7 505.73-15.04 488.91-15.04 488.91-5.66 507.08-5.66 507.08 0ZM531.9-22.44L540.89-34.69 548.09-34.69 535.88-18.16 549.43 0 541.64 0 531.44-13.82 521.23 0 513.67 0 527.41-18.09 515.18-34.69 522.6-34.69 531.9-22.44Z" fill="#1ebbd7" data-fill-palette-color="primary"></path></g></svg></g></svg></g><g transform="matrix(1,0,0,1,0,32.87461362219509)"><svg viewBox="0 0 232.209792 14.631888930404283" height="14.631888930404283" width="232.209792"><g transform="matrix(1,0,0,1,0,0)"><svg width="232.209792" viewBox="0 -37.99 793.42 50" height="14.631888930404283" data-palette-color="#4b91f1"><path d="M4.54-35.69L13.99-17.85 23.51-35.69 28-35.69 16.09-13.84 16.09 0 11.89 0 11.89-13.65 0-35.69 4.54-35.69ZM55.39-13.4L55.39-13.4Q55.39-6.86 52.1-3.19 48.8 0.49 42.99 0.49L42.99 0.49Q39.4 0.49 36.62-1.2 33.84-2.88 32.32-6.03 30.81-9.18 30.81-13.4L30.81-13.4Q30.81-19.95 34.08-23.6 37.35-27.25 43.16-27.25L43.16-27.25Q48.78-27.25 52.08-23.51 55.39-19.78 55.39-13.4ZM35.01-13.4L35.01-13.4Q35.01-8.28 37.06-5.59 39.11-2.91 43.09-2.91L43.09-2.91Q47.07-2.91 49.13-5.58 51.19-8.25 51.19-13.4L51.19-13.4Q51.19-18.51 49.13-21.15 47.07-23.8 43.04-23.8L43.04-23.8Q39.06-23.8 37.03-21.19 35.01-18.58 35.01-13.4ZM62.2-26.76L66.3-26.76 66.3-9.4Q66.3-6.13 67.79-4.52 69.28-2.91 72.46-2.91L72.46-2.91Q76.66-2.91 78.6-5.2 80.54-7.5 80.54-12.7L80.54-12.7 80.54-26.76 84.59-26.76 84.59 0 81.25 0 80.66-3.59 80.44-3.59Q79.19-1.61 76.98-0.56 74.78 0.49 71.94 0.49L71.94 0.49Q67.06 0.49 64.63-1.83 62.2-4.15 62.2-9.25L62.2-9.25 62.2-26.76ZM105.39-27.25L105.39-27.25Q107.17-27.25 108.59-26.95L108.59-26.95 108.02-23.19Q106.36-23.56 105.1-23.56L105.1-23.56Q101.85-23.56 99.54-20.92 97.23-18.29 97.23-14.36L97.23-14.36 97.23 0 93.18 0 93.18-26.76 96.53-26.76 96.99-21.8 97.18-21.8Q98.67-24.41 100.77-25.83 102.87-27.25 105.39-27.25ZM139.22-26.76L148.47-26.76 148.47-24.19 143.52-23.61Q144.2-22.75 144.74-21.37 145.28-20 145.28-18.26L145.28-18.26Q145.28-14.33 142.59-11.99 139.9-9.64 135.22-9.64L135.22-9.64Q134.02-9.64 132.97-9.84L132.97-9.84Q130.38-8.47 130.38-6.4L130.38-6.4Q130.38-5.3 131.29-4.77 132.19-4.25 134.39-4.25L134.39-4.25 139.12-4.25Q143.47-4.25 145.8-2.42 148.13-0.59 148.13 2.91L148.13 2.91Q148.13 7.35 144.57 9.68 141 12.01 134.17 12.01L134.17 12.01Q128.92 12.01 126.07 10.06 123.23 8.11 123.23 4.54L123.23 4.54Q123.23 2.1 124.79 0.32 126.35-1.46 129.19-2.1L129.19-2.1Q128.16-2.56 127.47-3.54 126.77-4.52 126.77-5.81L126.77-5.81Q126.77-7.28 127.55-8.37 128.33-9.47 130.02-10.5L130.02-10.5Q127.94-11.35 126.64-13.4 125.33-15.45 125.33-18.09L125.33-18.09Q125.33-22.49 127.97-24.87 130.6-27.25 135.44-27.25L135.44-27.25Q137.54-27.25 139.22-26.76L139.22-26.76ZM127.14 4.49L127.14 4.49Q127.14 6.67 128.97 7.79 130.8 8.91 134.22 8.91L134.22 8.91Q139.32 8.91 141.77 7.39 144.23 5.86 144.23 3.25L144.23 3.25Q144.23 1.07 142.88 0.23 141.54-0.61 137.83-0.61L137.83-0.61 132.97-0.61Q130.21-0.61 128.67 0.71 127.14 2.03 127.14 4.49ZM129.33-18.19L129.33-18.19Q129.33-15.38 130.92-13.94 132.51-12.5 135.34-12.5L135.34-12.5Q141.27-12.5 141.27-18.26L141.27-18.26Q141.27-24.29 135.27-24.29L135.27-24.29Q132.41-24.29 130.87-22.75 129.33-21.22 129.33-18.19ZM158.02-37.99L158.02 0 153.96 0 153.96-37.99 158.02-37.99ZM189.7-13.4L189.7-13.4Q189.7-6.86 186.41-3.19 183.11 0.49 177.3 0.49L177.3 0.49Q173.71 0.49 170.93-1.2 168.15-2.88 166.63-6.03 165.12-9.18 165.12-13.4L165.12-13.4Q165.12-19.95 168.39-23.6 171.66-27.25 177.47-27.25L177.47-27.25Q183.09-27.25 186.4-23.51 189.7-19.78 189.7-13.4ZM169.32-13.4L169.32-13.4Q169.32-8.28 171.37-5.59 173.42-2.91 177.4-2.91L177.4-2.91Q181.38-2.91 183.44-5.58 185.5-8.25 185.5-13.4L185.5-13.4Q185.5-18.51 183.44-21.15 181.38-23.8 177.35-23.8L177.35-23.8Q173.37-23.8 171.34-21.19 169.32-18.58 169.32-13.4ZM209.26-27.2L209.26-27.2Q214.53-27.2 217.45-23.6 220.37-20 220.37-13.4L220.37-13.4Q220.37-6.81 217.42-3.16 214.48 0.49 209.26 0.49L209.26 0.49Q206.65 0.49 204.48-0.48 202.32-1.44 200.86-3.44L200.86-3.44 200.57-3.44 199.71 0 196.81 0 196.81-37.99 200.86-37.99 200.86-28.76Q200.86-25.66 200.66-23.19L200.66-23.19 200.86-23.19Q203.69-27.2 209.26-27.2ZM208.67-23.8L208.67-23.8Q204.52-23.8 202.69-21.42 200.86-19.04 200.86-13.4L200.86-13.4Q200.86-7.76 202.74-5.33 204.62-2.91 208.77-2.91L208.77-2.91Q212.5-2.91 214.34-5.63 216.17-8.35 216.17-13.45L216.17-13.45Q216.17-18.68 214.34-21.24 212.5-23.8 208.67-23.8ZM246.9 0L243.9 0 243.09-3.81 242.9-3.81Q240.9-1.29 238.91-0.4 236.92 0.49 233.94 0.49L233.94 0.49Q229.96 0.49 227.7-1.56 225.44-3.61 225.44-7.4L225.44-7.4Q225.44-15.5 238.41-15.89L238.41-15.89 242.95-16.04 242.95-17.7Q242.95-20.85 241.59-22.35 240.24-23.85 237.26-23.85L237.26-23.85Q233.91-23.85 229.69-21.8L229.69-21.8 228.44-24.9Q230.42-25.98 232.78-26.59 235.13-27.2 237.5-27.2L237.5-27.2Q242.29-27.2 244.59-25.07 246.9-22.95 246.9-18.26L246.9-18.26 246.9 0ZM234.74-2.86L234.74-2.86Q238.53-2.86 240.69-4.93 242.85-7.01 242.85-10.74L242.85-10.74 242.85-13.16 238.8-12.99Q233.96-12.82 231.83-11.49 229.69-10.16 229.69-7.35L229.69-7.35Q229.69-5.15 231.02-4 232.35-2.86 234.74-2.86ZM259.3-37.99L259.3 0 255.25 0 255.25-37.99 259.3-37.99ZM300.34 0L297.33 0 296.53-3.81 296.33-3.81Q294.33-1.29 292.34-0.4 290.35 0.49 287.37 0.49L287.37 0.49Q283.39 0.49 281.13-1.56 278.88-3.61 278.88-7.4L278.88-7.4Q278.88-15.5 291.84-15.89L291.84-15.89 296.38-16.04 296.38-17.7Q296.38-20.85 295.03-22.35 293.67-23.85 290.69-23.85L290.69-23.85Q287.35-23.85 283.12-21.8L283.12-21.8 281.88-24.9Q283.86-25.98 286.21-26.59 288.57-27.2 290.94-27.2L290.94-27.2Q295.72-27.2 298.03-25.07 300.34-22.95 300.34-18.26L300.34-18.26 300.34 0ZM288.18-2.86L288.18-2.86Q291.96-2.86 294.12-4.93 296.28-7.01 296.28-10.74L296.28-10.74 296.28-13.16 292.23-12.99Q287.4-12.82 285.26-11.49 283.12-10.16 283.12-7.35L283.12-7.35Q283.12-5.15 284.45-4 285.79-2.86 288.18-2.86ZM312.74-26.76L312.74 0 308.68 0 308.68-26.76 312.74-26.76ZM308.34-34.01L308.34-34.01Q308.34-35.4 309.03-36.05 309.71-36.69 310.73-36.69L310.73-36.69Q311.71-36.69 312.42-36.04 313.13-35.38 313.13-34.01L313.13-34.01Q313.13-32.64 312.42-31.97 311.71-31.3 310.73-31.3L310.73-31.3Q309.71-31.3 309.03-31.97 308.34-32.64 308.34-34.01ZM333.53-27.25L333.53-27.25Q335.32-27.25 336.73-26.95L336.73-26.95 336.17-23.19Q334.51-23.56 333.24-23.56L333.24-23.56Q329.99-23.56 327.69-20.92 325.38-18.29 325.38-14.36L325.38-14.36 325.38 0 321.33 0 321.33-26.76 324.67-26.76 325.14-21.8 325.33-21.8Q326.82-24.41 328.92-25.83 331.02-27.25 333.53-27.25ZM364.83-2.91L364.83-2.91Q368.88-2.91 370.74-5.08 372.59-7.25 372.71-12.4L372.71-12.4 372.71-13.31Q372.71-18.92 370.81-21.39 368.91-23.85 364.78-23.85L364.78-23.85Q361.21-23.85 359.32-21.08 357.43-18.31 357.43-13.26L357.43-13.26Q357.43-8.2 359.3-5.55 361.17-2.91 364.83-2.91ZM364.22 0.49L364.22 0.49Q359.04 0.49 356.14-3.15 353.23-6.79 353.23-13.31L353.23-13.31Q353.23-19.87 356.16-23.56 359.09-27.25 364.32-27.25L364.32-27.25Q369.81-27.25 372.76-23.1L372.76-23.1 372.98-23.1 373.57-26.76 376.77-26.76 376.77 12.01 372.71 12.01 372.71 0.56Q372.71-1.88 372.98-3.59L372.98-3.59 372.67-3.59Q369.86 0.49 364.22 0.49ZM385.06-26.76L389.17-26.76 389.17-9.4Q389.17-6.13 390.66-4.52 392.15-2.91 395.32-2.91L395.32-2.91Q399.52-2.91 401.46-5.2 403.4-7.5 403.4-12.7L403.4-12.7 403.4-26.76 407.45-26.76 407.45 0 404.11 0 403.52-3.59 403.3-3.59Q402.06-1.61 399.85-0.56 397.64 0.49 394.81 0.49L394.81 0.49Q389.92 0.49 387.49-1.83 385.06-4.15 385.06-9.25L385.06-9.25 385.06-26.76ZM435.5 0L432.5 0 431.69-3.81 431.5-3.81Q429.5-1.29 427.51-0.4 425.52 0.49 422.54 0.49L422.54 0.49Q418.56 0.49 416.3-1.56 414.04-3.61 414.04-7.4L414.04-7.4Q414.04-15.5 427.01-15.89L427.01-15.89 431.55-16.04 431.55-17.7Q431.55-20.85 430.19-22.35 428.84-23.85 425.86-23.85L425.86-23.85Q422.51-23.85 418.29-21.8L418.29-21.8 417.04-24.9Q419.02-25.98 421.38-26.59 423.73-27.2 426.1-27.2L426.1-27.2Q430.89-27.2 433.19-25.07 435.5-22.95 435.5-18.26L435.5-18.26 435.5 0ZM423.34-2.86L423.34-2.86Q427.13-2.86 429.29-4.93 431.45-7.01 431.45-10.74L431.45-10.74 431.45-13.16 427.4-12.99Q422.56-12.82 420.43-11.49 418.29-10.16 418.29-7.35L418.29-7.35Q418.29-5.15 419.62-4 420.95-2.86 423.34-2.86ZM447.9-37.99L447.9 0 443.85 0 443.85-37.99 447.9-37.99ZM460.55-26.76L460.55 0 456.49 0 456.49-26.76 460.55-26.76ZM456.15-34.01L456.15-34.01Q456.15-35.4 456.83-36.05 457.52-36.69 458.54-36.69L458.54-36.69Q459.52-36.69 460.23-36.04 460.94-35.38 460.94-34.01L460.94-34.01Q460.94-32.64 460.23-31.97 459.52-31.3 458.54-31.3L458.54-31.3Q457.52-31.3 456.83-31.97 456.15-32.64 456.15-34.01ZM477.78-2.86L477.78-2.86Q478.85-2.86 479.85-3.02 480.86-3.17 481.44-3.34L481.44-3.34 481.44-0.24Q480.78 0.07 479.5 0.28 478.22 0.49 477.19 0.49L477.19 0.49Q469.43 0.49 469.43-7.69L469.43-7.69 469.43-23.61 465.6-23.61 465.6-25.56 469.43-27.25 471.14-32.96 473.48-32.96 473.48-26.76 481.25-26.76 481.25-23.61 473.48-23.61 473.48-7.86Q473.48-5.44 474.63-4.15 475.78-2.86 477.78-2.86ZM493.33 0.15L482.54-26.76 486.88-26.76 492.74-11.5Q494.67-6.27 495.14-3.96L495.14-3.96 495.33-3.96Q495.65-5.2 496.66-8.22 497.67-11.23 503.29-26.76L503.29-26.76 507.64-26.76 496.14 3.71Q494.43 8.23 492.14 10.12 489.86 12.01 486.54 12.01L486.54 12.01Q484.69 12.01 482.88 11.6L482.88 11.6 482.88 8.35Q484.22 8.64 485.88 8.64L485.88 8.64Q490.06 8.64 491.84 3.96L491.84 3.96 493.33 0.15ZM535.66 0.49L535.66 0.49Q529.85 0.49 526.66-3.09 523.48-6.67 523.48-13.21L523.48-13.21Q523.48-19.92 526.71-23.58 529.94-27.25 535.93-27.25L535.93-27.25Q537.86-27.25 539.78-26.83 541.71-26.42 542.81-25.85L542.81-25.85 541.57-22.41Q540.22-22.95 538.64-23.3 537.05-23.66 535.83-23.66L535.83-23.66Q527.67-23.66 527.67-13.26L527.67-13.26Q527.67-8.33 529.66-5.69 531.65-3.05 535.56-3.05L535.56-3.05Q538.9-3.05 542.42-4.49L542.42-4.49 542.42-0.9Q539.73 0.49 535.66 0.49ZM571.86-13.4L571.86-13.4Q571.86-6.86 568.57-3.19 565.27 0.49 559.46 0.49L559.46 0.49Q555.87 0.49 553.09-1.2 550.3-2.88 548.79-6.03 547.28-9.18 547.28-13.4L547.28-13.4Q547.28-19.95 550.55-23.6 553.82-27.25 559.63-27.25L559.63-27.25Q565.25-27.25 568.55-23.51 571.86-19.78 571.86-13.4ZM551.48-13.4L551.48-13.4Q551.48-8.28 553.53-5.59 555.58-2.91 559.56-2.91L559.56-2.91Q563.54-2.91 565.6-5.58 567.66-8.25 567.66-13.4L567.66-13.4Q567.66-18.51 565.6-21.15 563.54-23.8 559.51-23.8L559.51-23.8Q555.53-23.8 553.5-21.19 551.48-18.58 551.48-13.4ZM617.12 0L613.07 0 613.07-17.41Q613.07-20.61 611.7-22.2 610.34-23.8 607.45-23.8L607.45-23.8Q603.67-23.8 601.86-21.63 600.06-19.46 600.06-14.94L600.06-14.94 600.06 0 596 0 596-17.41Q596-20.61 594.64-22.2 593.27-23.8 590.36-23.8L590.36-23.8Q586.56-23.8 584.79-21.52 583.02-19.24 583.02-14.04L583.02-14.04 583.02 0 578.96 0 578.96-26.76 582.26-26.76 582.92-23.1 583.11-23.1Q584.26-25.05 586.35-26.15 588.44-27.25 591.02-27.25L591.02-27.25Q597.3-27.25 599.23-22.71L599.23-22.71 599.42-22.71Q600.62-24.8 602.89-26.03 605.16-27.25 608.06-27.25L608.06-27.25Q612.61-27.25 614.86-24.91 617.12-22.58 617.12-17.46L617.12-17.46 617.12 0ZM637.92 0.49L637.92 0.49Q635.31 0.49 633.15-0.48 630.99-1.44 629.52-3.44L629.52-3.44 629.23-3.44Q629.52-1.1 629.52 1L629.52 1 629.52 12.01 625.47 12.01 625.47-26.76 628.77-26.76 629.33-23.1 629.52-23.1Q631.08-25.29 633.16-26.27 635.24-27.25 637.92-27.25L637.92-27.25Q643.24-27.25 646.14-23.61 649.03-19.97 649.03-13.4L649.03-13.4Q649.03-6.81 646.09-3.16 643.15 0.49 637.92 0.49ZM637.33-23.8L637.33-23.8Q633.23-23.8 631.4-21.53 629.57-19.26 629.52-14.31L629.52-14.31 629.52-13.4Q629.52-7.76 631.4-5.33 633.28-2.91 637.43-2.91L637.43-2.91Q640.9-2.91 642.86-5.71 644.83-8.52 644.83-13.45L644.83-13.45Q644.83-18.46 642.86-21.13 640.9-23.8 637.33-23.8ZM675.56 0L672.56 0 671.76-3.81 671.56-3.81Q669.56-1.29 667.57-0.4 665.58 0.49 662.6 0.49L662.6 0.49Q658.62 0.49 656.36-1.56 654.1-3.61 654.1-7.4L654.1-7.4Q654.1-15.5 667.07-15.89L667.07-15.89 671.61-16.04 671.61-17.7Q671.61-20.85 670.25-22.35 668.9-23.85 665.92-23.85L665.92-23.85Q662.58-23.85 658.35-21.8L658.35-21.8 657.11-24.9Q659.09-25.98 661.44-26.59 663.8-27.2 666.17-27.2L666.17-27.2Q670.95-27.2 673.26-25.07 675.56-22.95 675.56-18.26L675.56-18.26 675.56 0ZM663.41-2.86L663.41-2.86Q667.19-2.86 669.35-4.93 671.51-7.01 671.51-10.74L671.51-10.74 671.51-13.16 667.46-12.99Q662.63-12.82 660.49-11.49 658.35-10.16 658.35-7.35L658.35-7.35Q658.35-5.15 659.68-4 661.01-2.86 663.41-2.86ZM706.28 0L702.22 0 702.22-17.31Q702.22-20.58 700.73-22.19 699.24-23.8 696.07-23.8L696.07-23.8Q691.87-23.8 689.92-21.53 687.96-19.26 687.96-14.04L687.96-14.04 687.96 0 683.91 0 683.91-26.76 687.21-26.76 687.87-23.1 688.06-23.1Q689.31-25.07 691.55-26.16 693.8-27.25 696.56-27.25L696.56-27.25Q701.39-27.25 703.83-24.91 706.28-22.58 706.28-17.46L706.28-17.46 706.28 0ZM718.65-26.76L718.65 0 714.6 0 714.6-26.76 718.65-26.76ZM714.26-34.01L714.26-34.01Q714.26-35.4 714.94-36.05 715.62-36.69 716.65-36.69L716.65-36.69Q717.63-36.69 718.33-36.04 719.04-35.38 719.04-34.01L719.04-34.01Q719.04-32.64 718.33-31.97 717.63-31.3 716.65-31.3L716.65-31.3Q715.62-31.3 714.94-31.97 714.26-32.64 714.26-34.01ZM750.34-13.4L750.34-13.4Q750.34-6.86 747.04-3.19 743.75 0.49 737.94 0.49L737.94 0.49Q734.35 0.49 731.56-1.2 728.78-2.88 727.27-6.03 725.75-9.18 725.75-13.4L725.75-13.4Q725.75-19.95 729.02-23.6 732.3-27.25 738.11-27.25L738.11-27.25Q743.72-27.25 747.03-23.51 750.34-19.78 750.34-13.4ZM729.95-13.4L729.95-13.4Q729.95-8.28 732-5.59 734.05-2.91 738.03-2.91L738.03-2.91Q742.01-2.91 744.08-5.58 746.14-8.25 746.14-13.4L746.14-13.4Q746.14-18.51 744.08-21.15 742.01-23.8 737.98-23.8L737.98-23.8Q734-23.8 731.98-21.19 729.95-18.58 729.95-13.4ZM779.8 0L775.75 0 775.75-17.31Q775.75-20.58 774.26-22.19 772.77-23.8 769.6-23.8L769.6-23.8Q765.4-23.8 763.45-21.53 761.49-19.26 761.49-14.04L761.49-14.04 761.49 0 757.44 0 757.44-26.76 760.74-26.76 761.39-23.1 761.59-23.1Q762.84-25.07 765.08-26.16 767.33-27.25 770.09-27.25L770.09-27.25Q774.92-27.25 777.36-24.91 779.8-22.58 779.8-17.46L779.8-17.46 779.8 0ZM787.54-2.59L787.54-2.59Q787.54-4.22 788.28-5.07 789.03-5.91 790.42-5.91L790.42-5.91Q791.84-5.91 792.63-5.07 793.42-4.22 793.42-2.59L793.42-2.59Q793.42-1 792.62-0.15 791.81 0.71 790.42 0.71L790.42 0.71Q789.18 0.71 788.36-0.06 787.54-0.83 787.54-2.59Z" opacity="1" transform="matrix(1,0,0,1,0,0)" fill="#4b91f1" class="slogan-text-1" data-fill-palette-color="secondary" id="text-1"></path></svg></g></svg></g></svg></g></svg></g><g><svg viewBox="0 0 112.26040413963666 112.26040413963666" height="112.26040413963666" width="112.26040413963666"><g><svg></svg></g><g id="icon-0"><svg viewBox="0 0 112.26040413963666 112.26040413963666" height="112.26040413963666" width="112.26040413963666"><g><path d="M0 56.13c0-31 25.13-56.13 56.13-56.13 31 0 56.13 25.13 56.13 56.13 0 31-25.13 56.13-56.13 56.13-31 0-56.13-25.13-56.13-56.13zM56.13 109.862c29.675 0 53.732-24.057 53.732-53.732 0-29.675-24.057-53.732-53.732-53.732-29.675 0-53.732 24.057-53.732 53.732 0 29.675 24.057 53.732 53.732 53.732z" data-fill-palette-color="accent" fill="#1ebbd7" stroke="transparent"></path></g><g transform="matrix(1,0,0,1,36.69822829093811,26.77806948344047)"><svg viewBox="0 0 38.86394755776044 58.704265172755726" height="58.704265172755726" width="38.86394755776044"><g><svg xmlns="http://www.w3.org/2000/svg" xmlns:xlink="http://www.w3.org/1999/xlink" version="1.1" x="0" y="0" viewBox="24.761855407245655 5 59.58264309935908 90" enable-background="new 0 0 100 100" xml:space="preserve" width="38.86394755776044" height="58.704265172755726" class="icon-z$-0" data-fill-palette-color="accent" id="z$-0"><g fill="#1ebbd7" data-fill-palette-color="accent"><path d="M73.76 35.603C86.875 48 91.5 66.25 65.633 82.379c3.64-4.928 5.654-9.794 6.096-14.669 0.951-10.516-5.606-19.072-12.835-26.752C48.298 29.7 47.51 18.84 56.413 6.782 54.578 22.641 64.6 26.944 73.76 35.603zM45.288 93.716c6.184-13.053 7.276-20.302-8.197-34.939-4.204-3.977-7.451-8.029-9.71-12.086-2.881 6.435-5.164 20.081 3.244 27.935C36.312 79.938 44.125 83.125 45.288 93.716zM56.709 43.014C48.183 33.954 41.999 21.253 54 5 21.497 17.692 19.625 38.125 39.151 56.597 55.603 72.158 54.75 80.75 48 95 79.875 71.5 68.709 55.764 56.709 43.014z" fill="#1ebbd7" data-fill-palette-color="accent"></path></g></svg></g></svg></g></svg></g></svg></g></svg></g><defs></defs></svg><rect width="395.52" height="85.33156853534179" fill="none" stroke="none" visibility="hidden"></rect></g></svg></g></svg>